# xmcd
#
# Track frame offsets:
# 150
# 17702
# 31729
# 45981
# 67508
# 78085
# 93237
# 103139
# 119191
# 134418
# 154895
#
# Disc length: 2246 seconds
#
#
# Revision: 0
# Processed by: cddbd v1.5.2PL0 Copyright (c) Steve Scherf et al.
# Submitted via: FreeRIP 2.944 
#
DISCID=8008c40b
DTITLE=Amos Lee - Supply And Demand
DYEAR=2006
DGENRE=Blues
TTITLE0=Shout Out Loud
TTITLE1=Sympathize
TTITLE2=Freedom
TTITLE3=Careless
TTITLE4=Skipping Stone
TTITLE5=Supply And Demand
TTITLE6=Sweet Pea
TTITLE7=Night Train
TTITLE8=Southern Girl
TTITLE9=The Wind
TTITLE10=Long Line Of pain
EXTD=
EXTT0=
EXTT1=
EXTT2=
EXTT3=
EXTT4=
EXTT5=
EXTT6=
EXTT7=
EXTT8=
EXTT9=
EXTT10=
PLAYORDER=
